<?xml version="1.0" standalone="no"?>
<!DOCTYPE svg PUBLIC "-//W3C//DTD SVG 20010904//EN"
 "http://www.w3.org/TR/2001/REC-SVG-20010904/DTD/svg10.dtd">
<svg version="1.0" xmlns="http://www.w3.org/2000/svg"
 width="512.000000pt" height="512.000000pt" viewBox="0 0 512.000000 512.000000"
 preserveAspectRatio="xMidYMid meet">
<metadata>
Created by potrace 1.14, written by Peter Selinger 2001-2017
</metadata>
<g transform="translate(0.000000,512.000000) scale(0.100000,-0.100000)"
fill="#000000" stroke="none">
<path d="M1623 5105 c-136 -30 -288 -127 -369 -238 -96 -129 -131 -242 -133
-425 -1 -64 -3 -117 -4 -118 -1 -1 -27 -5 -57 -9 -89 -11 -138 -24 -204 -54
-182 -86 -305 -235 -357 -434 -18 -69 -19 -145 -18 -1882 0 -1378 3 -1818 12
-1844 17 -48 73 -90 129 -97 54 -7 97 10 153 59 22 19 148 126 280 237 132
111 260 219 285 240 25 21 106 89 180 151 74 63 140 118 146 124 6 5 31 26 55
46 24 21 96 81 159 134 63 53 152 128 197 166 l83 70 217 -183 c120 -100 247
-207 283 -238 36 -30 76 -65 90 -77 32 -27 262 -220 450 -377 80 -66 147 -123
150 -126 3 -4 62 -54 132 -112 107 -91 133 -108 171 -113 79 -12 150 28 176
98 7 19 11 195 11 513 0 266 2 484 5 484 4 0 204 -159 275 -217 160 -133 296
-233 325 -239 90 -17 178 43 190 128 3 24 5 896 3 1938 l-3 1895 -23 65 c-80
222 -243 374 -462 430 -72 19 -121 19 -1270 19 -967 -1 -1207 -3 -1257 -14z
m2484 -327 c82 -30 138 -81 176 -158 l32 -65 3 -1708 c2 -1374 0 -1707 -10
-1701 -16 10 -86 64 -111 85 -10 9 -94 77 -187 150 l-169 134 -2 1105 c0 608
-2 1116 -3 1130 -14 142 -100 309 -208 404 -92 82 -229 145 -343 160 -22 3
-446 5 -942 6 l-903 0 0 103 c0 164 38 249 145 323 78 54 25 52 1292 53 l1173
1 57 -22z m-822 -790 c79 -24 166 -93 195 -157 7 -14 17 -35 24 -46 8 -15 12
-458 14 -1648 l2 -1629 -27 20 c-16 11 -37 29 -48 39 -11 10 -61 52 -110 93
-49 41 -101 85 -115 96 -14 12 -133 113 -265 224 -132 111 -251 212 -265 223
-14 12 -52 44 -85 72 -33 27 -62 52 -65 55 -3 3 -45 39 -95 80 -104 87 -126
105 -169 142 -48 43 -118 58 -171 38 -20 -7 -287 -224 -351 -284 -7 -6 -31
-27 -55 -46 -24 -19 -79 -66 -124 -103 -44 -38 -89 -76 -100 -86 -44 -36 -401
-336 -411 -346 -7 -5 -20 -17 -31 -25 -10 -8 -61 -51 -113 -96 -52 -44 -101
-84 -108 -88 -10 -6 -12 310 -10 1621 l3 1628 22 45 c26 51 74 106 118 137 79
53 33 51 1210 52 814 1 1100 -2 1130 -11z"/>
</g>
</svg>
